<?xml version="1.0" encoding="UTF-8"?>
<svg version="1.1" viewBox="0 0 1576 1600" width="1280" height="1280" xmlns="http://www.w3.org/2000/svg">
<path transform="translate(0)" d="m0 0h1576v1600h-1576v-1600z" fill="#FDFDFD"/>
<path transform="translate(895 273)" d="m0 0c2.43 0.00316 4.86-0.0204 7.3-0.0457 14-0.0573 27.5 1.67 40.8 6.05 1.17 0.38 1.17 0.38 2.37 0.768 16.1 5.41 29.3 13.9 41.7 25.4 2.07 1.9 4.18 3.71 6.33 5.52 15.8 13.9 28 32.9 36.4 52.1 2.71 4.26 5.46 6.02 10.3 7.09 3.32 0.518 6.64 0.937 9.98 1.33 33.5 4.51 67.6 16.7 91.3 42.1v2h2c20.3 20.7 32.1 48.9 32.3 77.7 0.0114 1.46 0.0317 2.91 0.0615 4.37 0.194 9.53-0.82 17.5-3.54 26.7-1.1 4.33-0.882 6.93 0.179 11.2 0.286 1.18 0.572 2.37 0.867 3.59 0.333 1.25 0.665 2.5 1.01 3.79 10.1 40.7 10.1 40.7 4.11 55.1-0.324 0.513-0.647 1.03-0.98 1.55-5.81 0.258-10.4-0.439-15.8-2.49-0.728-0.261-1.46-0.523-2.21-0.792-1.56-0.561-3.12-1.13-4.67-1.7-3.31-1.22-6.64-2.4-9.96-3.59-2.53-0.904-5.05-1.81-7.58-2.72-22.9-8.23-46.1-15.1-69.6-21.2-1.97-0.508-3.94-1.02-5.91-1.53-75.9-19.7-155-26.8-233-27.5-1.88-0.0179-3.76-0.0433-5.63-0.0769-13.5-0.461-13.5-0.461-25.2 5.55-3.51 3.95-4.15 8.83-4 14 1.82 5.37 4.95 8.47 10 11 7.04 0.967 14.1 1.16 21.2 1.25 1.95 0.0314 3.91 0.0632 5.86 0.0952 1.52 0.0231 1.52 0.0231 3.07 0.0466 22.3 0.352 44.6 1.13 66.8 2.61 1.13 0.0748 1.13 0.0748 2.28 0.151 51.2 3.42 102 11 152 23.3 2.04 0.501 4.08 0.995 6.12 1.49 22 5.36 43.3 12.7 64.7 20.2 2.26 0.795 4.52 1.59 6.78 2.38 9.46 3.31 18.9 6.74 28.2 10.3 0.711 0.271 1.42 0.543 2.16 0.822 17.5 6.69 34.7 14 51.9 21.3 2.17 0.932 4.35 1.86 6.52 2.79 8.59 3.67 17.2 7.4 25.7 11.2 0.997 0.434 1.99 0.869 3.02 1.32 2.67 1.17 5.32 2.36 7.98 3.56 0.741 0.321 1.48 0.642 2.25 0.972 8.67 4.02 12.8 11.4 17.3 19.5 0.506 0.899 1.01 1.8 1.53 2.72 1.67 2.98 3.32 5.97 4.97 8.96 0.893 1.62 0.893 1.62 1.8 3.27 20.3 36.9 20.3 36.9 20.5 47.7 0.0374 1.03 0.0748 2.06 0.113 3.12-0.426 2.88-0.426 2.88-1.88 5.31-3.1 1.9-5.29 1.99-8.85 1.4-5.19-1.62-9.7-4.58-14.3-7.44-3.19-1.99-6.42-3.91-9.65-5.84-0.654-0.391-1.31-0.782-1.98-1.18-18.4-10.9-38.3-19.5-57.8-28.4-1.26-0.575-2.53-1.15-3.79-1.72-9.06-4.12-18.1-8.21-27.2-12.3-1.03-0.461-2.05-0.923-3.11-1.4-14.9-6.68-30.1-12.6-45.3-18.5-4.21-1.61-8.4-3.29-12.6-5-10.1-4.09-20.4-7.63-30.7-11.2-1.07-0.37-2.13-0.74-3.23-1.12-78.1-27.1-159-46-240-58.3-2.08-0.313-4.16-0.628-6.23-0.948-19.8-4.14-19.8-4.14-38.8-0.697-4.65 3.67-7.19 8.42-8.23 14.2 0.931 4.76 2.68 8.55 6.7 11.4 3.35 1.75 6.28 2.37 10 3.03 0.695 0.123 1.39 0.245 2.1 0.372 7.66 1.32 15.4 2.32 23.1 3.29 4.18 0.527 8.35 1.07 12.5 1.61 0.808 0.105 1.62 0.209 2.45 0.317 6.06 0.786 12.1 1.61 18.2 2.5 0.681 0.0986 1.36 0.197 2.06 0.299 5.24 0.795 10.4 1.84 15.6 2.9 4.23 0.857 8.47 1.68 12.7 2.47 69.5 13 136 32.7 203 56.9 2.31 0.834 4.64 1.64 6.96 2.45 1.44 0.51 2.87 1.02 4.31 1.53 0.645 0.217 1.29 0.433 1.95 0.656 4.39 1.58 7.11 3.65 10.1 7.21 0.562 2.5 0.562 2.5 0 5-1.88 2.81-1.88 2.81-4 5h-2c-0.247 0.583-0.495 1.17-0.75 1.77-1.44 2.57-3.03 4.07-5.25 5.98-0.701 0.614-1.4 1.23-2.12 1.86-1.88 1.39-1.88 1.39-3.88 1.39-0.33 0.99-0.66 1.98-1 3-1.19 1.15-2.37 2.3-3.56 3.45-6.25 6.69-9.79 15.2-13.4 23.5-4.78 10.8-9.87 20.8-17.2 30.1-0.472 0.593-0.944 1.19-1.43 1.8-14.9 18.4-34.5 32.3-55.3 43.2-0.702 0.37-1.4 0.74-2.13 1.12-21.6 11.2-44.9 18.1-68.9 21.9-1.12 0.191-2.23 0.383-3.38 0.58-8.39 1.27-16.5 1.53-25 1.4-1.65-0.0234-1.65-0.0234-3.32-0.0472-4.56-0.0736-9.12-0.158-13.7-0.28-3.37-0.0849-6.74-0.132-10.1-0.173-1.02-0.0372-2.04-0.0745-3.09-0.113-7.45-0.0531-11.7 1.97-17.4 6.63-1.22 0.931-2.45 1.86-3.68 2.79-0.59 0.46-1.18 0.921-1.79 1.4-29.1 22.7-63.3 36.5-99.5 42.8-1.03 0.184-2.05 0.368-3.11 0.558-9.97 1.62-19.8 1.84-29.9 1.82-0.859-5.44e-4 -1.72-0.00109-2.6-0.00165-31.5-0.0916-61.9-7.29-85-30-7.05-7.6-11.6-15.4-15.4-25-3.44-9.56-3.44-9.56-10.1-16.8-7.79-1.56-15 1.36-22.1 4.19-10.4 3.94-20.8 6.85-31.7 9.25l-3.02 0.711c-28.6 6.08-62.4 2.32-87.2-13.5-5.67-3.97-10.8-8.34-15.8-13.2l-1.89-1.82c-13.5-14.1-19.5-35.2-19.4-54.3 0.00737-1.51 0.00737-1.51 0.0149-3.05 0.192-12.4 2.57-23.7 6.67-35.3 1.72-5.04 2.56-9.67 0.857-14.8-0.344-0.634-0.688-1.27-1.04-1.92-0.336-0.645-0.673-1.29-1.02-1.95-2.73-4.2-4.99-5.3-10-6.41-2.69-0.482-5.39-0.783-8.11-1.02-23.2-2.04-45-12.4-61.1-29.4l-2.5-2.25c-18.6-20.5-23.5-48.2-22.6-74.9 0.349-6.8 1.48-13.3 3.15-19.9 0.177-0.724 0.355-1.45 0.538-2.19 4.61-18.1 13.3-36.5 25.5-50.8 0.682-0.807 1.36-1.61 2.07-2.45 2.26-2.58 4.58-5.07 6.93-7.55 0.665-0.714 0.665-0.714 1.34-1.44 26.6-28.4 62.4-41 100-44.4 1.13-0.11 2.25-0.22 3.41-0.333 1.51-0.136 1.51-0.136 3.06-0.275 4.67-0.946 7.17-2.62 9.81-6.57 0.391-2.17 0.687-4.36 0.93-6.55 0.157-1.33 0.315-2.67 0.473-4 0.236-2.08 0.468-4.16 0.697-6.24 1.51-13.6 4.37-26.4 9.53-39.1 0.338-0.835 0.675-1.67 1.02-2.53 7.76-18.6 19.6-33.1 33.4-47.6 0.775-0.829 1.55-1.66 2.35-2.51 8.69-9.03 19-16 29.7-22.5 0.556-0.345 1.11-0.691 1.68-1.05 32.6-20.2 75.6-28.3 113-19.5 8.71 2.21 17.3 4.88 25.8 7.82 14.2 4.69 29.5 4.52 43.3-1.28 0.808-0.304 1.62-0.608 2.45-0.922 8.95-3.85 16.2-10.9 23.6-17.1 16.4-13.7 32.4-24.4 52-33 1.01-0.442 2.01-0.884 3.05-1.34 5.89-2.34 12.1-3.77 18.2-5.29 1.25-0.31 1.25-0.31 2.53-0.626 13.2-3.1 26.2-4.1 39.7-4.06z" fill="#000100"/>
<path transform="translate(464 1200)" d="m0 0c1.27 0.0611 1.27 0.0611 2.56 0.124 0.943 0.0431 1.89 0.0862 2.86 0.131 1.02 0.0523 2.03 0.105 3.08 0.158 1.03 0.0504 2.06 0.101 3.13 0.153 2.12 0.104 4.24 0.211 6.36 0.32 2.84 0.141 5.67 0.262 8.51 0.375 1.61 0.0712 3.22 0.143 4.82 0.215 0.743 0.0269 1.49 0.0538 2.25 0.0815 3.66 0.18 5.38 0.4 8.5 2.48 0.385 2.58 0.385 2.58 0.401 5.88 0.02 1.85 0.02 1.85 0.0404 3.75 1.35e-4 1.36 2.52e-4 2.72 3.51e-4 4.08 0.0118 1.4 0.0251 2.8 0.04 4.2 0.0363 3.7 0.0564 7.39 0.0715 11.1 0.0247 5.87 0.0653 11.7 0.122 17.6 0.016 2.03 0.0201 4.06 0.023 6.1 0.0941 11.8 0.351 23.8 6.3 34.3 0.422 0.748 0.843 1.5 1.28 2.27 8.29 13.5 21.1 20.3 36.1 24 5.87 1.36 11.8 2.57 17.7 3.73 0.741 0.147 1.48 0.293 2.24 0.445 5.73 1.13 11.5 2.23 17.2 3.31 0.783 0.149 1.57 0.298 2.37 0.451 21.2 4 41.8 5.1 63.4 5.07 3.76-0.0025 7.52 0.00659 11.3 0.014 7.35 0.0127 14.7 0.0146 22 0.0122 5.98-0.00179 12-1.24e-5 17.9 0.00422 0.856 5.95e-4 1.71 0.00119 2.59 0.0018 1.74 0.00121 3.48 0.00243 5.22 0.00364 16.3 0.0108 32.5 0.00873 48.8 0.00262 14.8-0.00516 29.6 0.00608 44.5 0.0251 15.3 0.0195 30.6 0.0276 45.8 0.0239 8.55-0.0019 17.1 4.61e-4 25.7 0.0147 7.28 0.012 14.6 0.0132 21.9 0.00121 3.7-0.00582 7.41-0.00719 11.1 5e-3 25.6 0.0784 50.1-2.38 75.2-7.66 3.17-0.667 6.35-1.32 9.53-1.96 29.6-5.8 29.6-5.8 51.7-25.3 9-14.5 7.71-32.8 7.58-49.3-0.083-11.1-0.151-22.3 0.357-33.4 0.0309-0.794 0.0619-1.59 0.0938-2.41 0.283-5.16 0.283-5.16 2.53-7.41 5.9-1.55 12.1-1.62 18.2-2.06 1.77-0.136 1.77-0.136 3.58-0.275 6.76-0.498 13.5-0.793 20.2-0.662 2.22 4.79 4.22 9.56 5.97 14.5 10.1 28.5 29.2 48.3 56.5 61.4 15.9 6.88 31.6 7.49 48.7 7.78 1.04 0.02 2.09 0.0399 3.16 0.0605 15.1 0.284 30.3 0.263 45.4-0.123 0.845-0.0212 1.69-0.0425 2.56-0.0644 9.26-0.245 18.5-0.646 27.7-1.56 2.17 3.26 2.25 4.16 2.25 7.93 0.00564 1.02 0.0113 2.03 0.0171 3.08-0.00607 1.67-0.00607 1.67-0.0123 3.38 0.00526 1.76 0.00526 1.76 0.0106 3.56 0.0073 3.22 0.00558 6.45-7.58e-4 9.67-0.00507 3.38-3.66e-4 6.76 0.00277 10.1 0.00364 5.68-0.00116 11.4-0.0107 17.1-0.0108 6.55-0.00739 13.1 0.00365 19.7 0.00911 5.64 0.0103 11.3 0.00512 16.9-0.0031 3.36-0.00278 6.72 0.00307 10.1 0.00511 3.76-0.0027 7.52-0.0138 11.3 0.00405 1.1 0.0081 2.2 0.0123 3.33-0.0834 15.3-4.15 27.5-14.9 38.8-9.42 8.78-21.1 13.3-33.9 13.3-0.65 0.00165-1.3 0.0033-1.97 5e-3 -2.19 0.00433-4.37 0.00152-6.56-0.00123-1.59 0.00165-3.17 0.00374-4.76 0.00622-4.38 0.00558-8.77 0.00489-13.1 0.00322-4.76-7.3e-4 -9.52 0.00429-14.3 0.00858-9.45 0.00759-18.9 0.00977-28.4 0.0103-11.3 9.13e-4 -22.6 0.00758-34 0.0143-27.4 0.0161-54.7 0.022-82.1 0.0267-12.9 0.00233-25.9 0.00594-38.8 0.0097-43.6 0.0126-87.2 0.0234-131 0.0268-2.08 1.62e-4 -4.17 3.28e-4 -6.25 4.94e-4 -4.18 3.34e-4 -8.36 6.64e-4 -12.5 9.95e-4 -4.89 3.87e-4 -9.79 7.77e-4 -14.7 0.00117-1.4 1.12e-4 -2.8 2.24e-4 -4.2 3.34e-4 -45 0.00355-89.9 0.0186-135 0.0419-32.3 0.0167-64.6 0.0322-96.9 0.0367-0.665 9.35e-5 -1.33 1.87e-4 -2.01 2.83e-4 -15.2 0.00211-30.5 0.0032-45.7 0.00358-5.22 1.71e-4 -10.4 3.87e-4 -15.7 6.34e-4 -1.28 5.58e-5 -2.57 1.12e-4 -3.89 1.69e-4 -20.7 0.00115-41.4 0.0122-62 0.0267-20.8 0.0144-41.6 0.0176-62.3 0.00956-12.3-0.00446-24.7-5.92e-4 -37 0.0152-8.25 0.00975-16.5 0.00857-24.8-0.00144-4.7-0.00539-9.4-0.0061-14.1 0.00651-4.28 0.0114-8.57 0.00875-12.8-0.00467-1.53-0.00242-3.06 9.13e-5 -4.6 0.0084-18.9 0.0956-33.9-2.49-48.2-15.4-16.4-16.6-15.6-35.4-15.5-57.5-1.55e-4 -2.64-0.00165-5.27-0.00441-7.91-0.00268-5.49 0.0106-11 0.034-16.5 0.0268-6.34 0.0283-12.7 0.0166-19-0.0108-6.13-0.0045-12.3 0.00956-18.4 0.00452-2.6 0.00485-5.2 9.35e-4 -7.79-0.0029-3.62 0.0135-7.23 0.0354-10.8-0.0045-1.07-9e-3 -2.15-0.0136-3.25 0.0099-0.984 0.0198-1.97 0.03-2.98 0.00243-0.853 0.00486-1.71 0.00736-2.59 0.474-2.88 1.33-4.25 3.38-6.31 3.81-0.312 6.89-0.215 10.6 0.505 3.92 0.574 7.76 0.65 11.7 0.656 0.814 0.00496 1.63 0.00993 2.47 0.015 2.68 0.0146 5.36 0.0214 8.05 0.0269 0.923 0.00283 1.85 0.00565 2.8 0.00857 4.89 0.015 9.79 0.0242 14.7 0.0285 5.01 0.00546 10 0.0294 15 0.058 3.89 0.0188 7.78 0.0238 11.7 0.0254 1.85 0.00299 3.69 0.0109 5.54 0.0242 14.4 0.096 28.3-0.957 41.9-5.91 0.694-0.251 1.39-0.502 2.1-0.761 24.8-9.5 43.4-30 54.5-53.6 2.13-4.87 3.58-9.89 4.89-15 2.2-7.98 2.2-7.98 4.94-8.04z" fill="#000100"/>
<path transform="translate(1089 837)" d="m0 0c1.51 0.0611 1.51 0.0611 3.06 0.124 1.06 0.0572 2.13 0.114 3.22 0.173 1.09 0.0559 2.18 0.112 3.3 0.169 14.1 0.788 28.7 2.31 39.1 13 8.82 11.6 13.3 26 18 39.6 2.03 5.81 4.29 11.5 6.62 17.2 1.5 3.74 2.83 7.53 4.15 11.3 3.64 10.4 7.55 20.7 11.5 31 0.373 0.987 0.747 1.97 1.13 2.99 4.57 12.1 9.15 24.1 13.8 36.1 0.456 1.18 0.912 2.36 1.38 3.57 2.55 6.57 5.13 13.1 7.72 19.7 1.5 3.78 2.99 7.55 4.48 11.3 0.732 1.85 1.47 3.7 2.21 5.55 1.03 2.58 2.05 5.17 3.07 7.76 0.312 0.773 0.624 1.55 0.945 2.34 0.423 1.08 0.423 1.08 0.855 2.19 0.248 0.624 0.496 1.25 0.752 1.89 0.639 2.36 0.56 4.51 0.527 6.95-82.3 0.0171-165 0.033-247 0.0423-1.22 1.38e-4 -2.43 2.76e-4 -3.69 4.18e-4 -26.5 0.00299-52.9 0.00576-79.4 0.0083-13 0.00125-25.9 0.00254-38.9 0.00387-1.29 1.31e-4 -2.58 2.62e-4 -3.91 3.96e-4 -41.9 0.00426-83.8 0.0118-126 0.021-43 0.00942-86 0.0156-129 0.0176-6.07 2.88e-4 -12.1 6.14e-4 -18.2 9.62e-4 -1.19 6.74e-5 -2.39 1.35e-4 -3.62 2.04e-4 -19.3 0.00118-38.5 0.00583-57.8 0.0118-19.3 0.00588-38.7 0.00814-58 0.00667-11.5-7.63e-4 -23 0.00129-34.5 0.0073-7.68 0.00373-15.4 0.00388-23 0.00103-4.38-0.00152-8.76-0.00141-13.1 0.00305-3.98 0.00403-7.96 0.00351-11.9-7.43e-4 -1.44-7.18e-4 -2.87 2.65e-4 -4.31 0.0031-1.94 0.00358-3.88 4.6e-4 -5.82-0.00304-1.62 2.34e-4 -1.62 2.34e-4 -3.27 4.73e-4 -2.43-0.109-4.45-0.422-6.77-1.12 0.631-4.97 2.12-9.41 3.93-14.1 0.302-0.79 0.603-1.58 0.914-2.39 1-2.63 2.02-5.25 3.03-7.87 0.718-1.87 1.44-3.74 2.15-5.61 5.82-15.2 11.7-30.3 17.6-45.5 8.3-21.3 16.4-42.8 24.5-64.2 11.1-29.6 11.1-29.6 16.5-43 0.323-0.819 0.646-1.64 0.979-2.48 1.28-3.2 2.54-6.02 4.46-8.89 3 0 3 0 4.68 1.57 0.579 0.697 1.16 1.39 1.75 2.11 0.576 0.684 1.15 1.37 1.75 2.07 1.25 1.54 2.46 3.1 3.65 4.68 17.8 21 49.2 33.9 76.1 36.4 6.27 0.368 12.5 0.367 18.8 0.366 2.43 0.00218 4.85 0.0204 7.28 0.0393 9.85 0.0356 19.2-0.646 29-2.22 0.825-0.12 1.65-0.241 2.5-0.365 8.76-1.28 17.1-3.18 25.4-6.1 4.79-1.64 4.79-1.64 8.09-0.538 1.25 2.04 2.4 4.13 3.5 6.25 15.5 28.4 44 44.8 74 54 15.9 4.66 32.1 6.14 48.6 6.1 0.775-2.11e-4 1.55-4.23e-4 2.35-6.41e-4 44.9-0.121 91.4-12.5 130-36.4 0.642-0.397 1.28-0.794 1.95-1.2 6.63-4.12 13-8.34 19.1-13.3 5.12-3.93 8.86-4.94 15.3-4.91 1.67-0.0197 3.34-0.0396 5.02-0.0596 0.873-0.00504 1.75-0.0101 2.64-0.0153 63.5-0.445 125-17.3 173-60.2 0.597-0.529 1.19-1.06 1.81-1.6 0.787-0.706 0.787-0.706 1.59-1.43 3.63-2.82 6.25-3.51 10.8-3.31z" fill="#000100"/>
<path transform="translate(335 1082)" d="m0 0c1.3-0.00609 2.6-0.0122 3.94-0.0185 1.46-0.00177 2.92-0.00344 4.38-0.00503 1.54-0.00529 3.09-0.011 4.63-0.0171 4.28-0.0156 8.56-0.0249 12.8-0.0332 4.64-0.01 9.29-0.0257 13.9-0.0406 9.22-0.0286 18.4-0.0515 27.7-0.0726 7.67-0.0177 15.3-0.0377 23-0.059 83.8-0.233 168-0.365 252-0.465 12.2-0.0145 24.5-0.0295 36.7-0.0448 2.05-0.00256 4.1-0.0051 6.15-0.00765 43.2-0.0538 86.4-0.157 130-0.288 45.8-0.139 91.5-0.231 137-0.257 6.36-0.00362 12.7-0.00779 19.1-0.0123 1.25-8.65e-4 2.5-0.00173 3.79-0.00262 20.2-0.0153 40.4-0.0821 60.5-0.168 20.3-0.0849 40.5-0.115 60.8-0.0896 12.1 0.0136 24.1-0.0148 36.2-0.103 8.04-0.0546 16.1-0.0551 24.1-0.011 4.59 0.0236 9.17 0.0232 13.8-0.0431 4.17-0.0599 8.34-0.0507 12.5 0.0136 1.5 0.011 3-0.00316 4.5-0.0455 4.72-0.125 8.67 0.0535 13 1.91 3.73 3.76 6.01 8.49 8.19 13.3 1.01 2.19 2.2 4.26 3.42 6.34 0.716 1.3 1.43 2.6 2.14 3.91 0.835 1.52 1.67 3.03 2.51 4.55 0.437 0.792 0.875 1.58 1.33 2.4 2.65 4.78 5.35 9.54 8.04 14.3 0.551 0.975 1.1 1.95 1.67 2.96 2.42 4.28 4.84 8.55 7.31 12.8 0.379 0.655 0.758 1.31 1.15 1.98 0.981 1.69 1.97 3.38 2.95 5.06 1.29 2.45 1.29 2.45 1.29 4.45-16.1 1.53-32.3 2.81-48.4 3.99-2.52 0.185-5.03 0.371-7.55 0.556-5.98 0.44-12 0.879-17.9 1.32-4.81 0.352-9.63 0.705-14.4 1.06-0.686 0.0504-1.37 0.101-2.08 0.153-1.39 0.102-2.77 0.204-4.16 0.306-15.3 1.13-30.6 2.25-45.9 3.37-5.14 0.376-10.3 0.753-15.4 1.13-8.73 0.64-17.5 1.28-26.2 1.91-2 0.146-4 0.292-6 0.438-1.25 0.0914-2.5 0.183-3.79 0.277-1.6 0.117-1.6 0.117-3.24 0.237-2.32 0.168-4.63 0.331-6.95 0.492-5.77 0.4-11.5 0.817-17.3 1.29-23.3 1.82-46.6 1.76-70 1.72-6.04-0.00667-12.1-0.00161-18.1 0.00188-10.4 0.00443-20.9 0.00162-31.3-0.00665-10.9-0.00866-21.9-0.0135-32.8-0.0133-0.685 7.65e-6 -1.37 1.53e-5 -2.08 2.32e-5 -2.78 4.09e-5 -5.56 1.07e-4 -8.35 2.06e-4 -26 9.03e-4 -52-0.00899-78-0.0244-23.1-0.0136-46.1-0.0199-69.2-0.0192-1.48 4.04e-5 -2.96 8.08e-5 -4.45 1.21e-4 -1.1 3.05e-5 -1.1 3.05e-5 -2.22 6.17e-5 -3.69 1.01e-4 -7.38 1.91e-4 -11.1 2.7e-4 -0.728 1.67e-5 -1.46 3.34e-5 -2.21 5.06e-5 -19.3 3.66e-4 -38.7-0.00418-58-0.0104-0.688-2.2e-4 -1.38-4.41e-4 -2.09-6.67e-4 -2.77-8.88e-4 -5.54-0.00178-8.3-0.00269-9.59-0.00315-19.2-0.00467-28.8-0.00511-12.4-5.99e-4 -24.7-0.00475-37.1-0.0144-5.95-0.00459-11.9-0.00767-17.8-0.00641-5.46 0.00111-10.9-0.0025-16.4-0.00965-1.96-0.00179-3.92-0.00197-5.88-2.33e-4 -18.1 0.0142-36.2-0.659-54.3-2.21-14-1.19-27.9-2.2-41.9-3.17-0.786-0.0542-1.57-0.108-2.38-0.164-8-0.551-16-1.1-24-1.64-15-1.02-30.1-2.09-45.1-3.51-7.04-0.663-14.1-1.15-21.2-1.65-4.33-0.306-8.66-0.623-13-0.94-0.918-0.0671-1.84-0.134-2.78-0.203-2.96-0.217-5.93-0.434-8.89-0.652-1.09-0.0799-2.18-0.16-3.31-0.242-6.93-0.508-13.9-1.03-20.8-1.56-2.27-0.173-4.53-0.342-6.8-0.508-3.17-0.232-6.34-0.477-9.51-0.724-0.958-0.0677-1.92-0.135-2.9-0.205-0.87-0.0704-1.74-0.141-2.64-0.213-0.762-0.0576-1.52-0.115-2.31-0.174-0.575-0.123-1.15-0.246-1.74-0.372-0.33-0.66-0.66-1.32-1-2 1.03-2.19 1.03-2.19 2.66-4.93 0.603-1.03 1.21-2.06 1.83-3.12 0.665-1.12 1.33-2.24 2.02-3.39 1.39-2.37 2.78-4.74 4.17-7.11 0.358-0.612 0.717-1.22 1.09-1.85 3.8-6.51 7.43-13.1 11.1-19.7 4.19-7.59 8.42-15.1 13-22.5 0.403-0.651 0.805-1.3 1.22-1.97 3.32-5.23 4.94-5.53 11-5.54z" fill="#000100"/>
<path transform="translate(1496 51.3)" d="m0 0c1.66 0.0318 3.32 0.059 4.97 0.0814 2.26 0.0327 4.52 0.0845 6.78 0.142 1.89 0.0393 1.89 0.0393 3.83 0.0793 0.964 0.143 1.93 0.285 2.92 0.432 3.02 4.53 2.23 8.55 1.44 13.8-1.26 6.28-3.51 12.3-5.54 18.4-1.83 5.46-3.42 11-4.96 16.5-2.01 7.2-4.25 14.3-6.68 21.4-2.36 6.99-4.25 14.1-6.14 21.2-1.2 4.48-2.43 8.86-4.11 13.2-2.41 6.22-4 12.7-5.72 19.1-1.84 6.85-3.84 13.6-6 20.4-1.21 3.77-2.39 7.56-3.57 11.3-2.09 6.7-4.2 13.4-6.32 20.1-2.08 6.56-4.15 13.1-6.21 19.7-1.49 4.74-3 9.46-4.52 14.2-0.639 2.02-1.28 4.03-1.91 6.05-0.431 1.31-0.431 1.31-0.871 2.65-1.67 5.35-2.6 10.4-1.88 16 2.63 4.93 6.94 7.06 12 9 2.78 0.509 5.47 0.536 8.3 0.498 0.786 0.00552 1.57 0.011 2.38 0.0167 1.69 0.00926 3.38 0.00947 5.08 0.00141 2.68-0.0127 5.35-0.00128 8.03 0.016 4.71 0.0266 9.42 0.0323 14.1 0.0309 7.56-0.00224 15.1 0.0118 22.7 0.0556 2.64 0.00985 5.28 0.00112 7.92-0.0087 1.61 0.00614 3.22 0.0131 4.84 0.0209 0.734-0.00772 1.47-0.0154 2.22-0.0234 4.95 0.0496 4.95 0.0496 7.38 1.8 2.15 3.27 1.6 6.87 1.05 10.6-1.1 3.4-2.62 6.51-4.25 9.69-0.447 0.906-0.895 1.81-1.36 2.74-4.22 8.44-8.76 16.7-13.3 25-3.12 5.65-6.1 11.4-9.07 17.1-3.88 7.49-7.86 14.9-11.9 22.3-4.39 7.97-8.53 16-12.6 24.2-4.37 8.84-8.92 17.5-13.7 26.2-4.6 8.36-8.95 16.8-13.3 25.3-5.15 10.1-10.4 20.1-15.8 30-12.1 21.9-23.6 44.2-35.1 66.4-4.51 8.72-9.06 17.4-13.6 26.1-0.411 0.787-0.823 1.57-1.25 2.38-5.12 9.8-10.3 19.6-15.5 29.3-0.652 1.22-1.3 2.44-1.95 3.67-10.6 20-10.6 20-14.3 23.6-5.52 0.445-7.63 0.451-12-3 1.52-13.5 4.18-26.8 6.8-40.2 0.481-2.47 0.961-4.94 1.44-7.41 1.01-5.22 2.03-10.4 3.05-15.7 2.51-12.9 5.01-25.8 7.51-38.7 0.39-2.01 0.781-4.03 1.17-6.04 5.18-26.7 10.2-53.5 15.1-80.3 1.54-8.45 3.12-16.9 4.72-25.3 0.398-2.11 0.796-4.21 1.19-6.32 0.26-1.38 0.52-2.76 0.78-4.14 0.191-1.01 0.191-1.01 0.386-2.05 0.622-3.29 1.25-6.59 1.88-9.88 0.681-3.57 1.35-7.13 2.03-10.7 0.304-1.57 0.304-1.57 0.613-3.17 2.17-10.6 2.17-10.6-1.27-20.5-3.46-4.15-7.25-6.33-12.6-7.09-4.01-0.182-8-0.208-12-0.178-1.48-0.00805-2.96-0.0186-4.44-0.0314-3.88-0.0284-7.76-0.0291-11.6-0.0221-6.22 0.00735-12.4-0.024-18.7-0.0624-2.17-0.00883-4.33-0.00356-6.5 0.00356-1.32-0.00373-2.63-0.00746-3.99-0.0113-1.16 0.00176-2.31 0.00351-3.51 0.00533-2.88-0.238-4.54-0.741-6.97-2.24-0.386-6.79 1.06-13.1 2.46-19.7 0.259-1.25 0.517-2.5 0.784-3.79 0.702-3.4 1.41-6.79 2.13-10.2 0.598-2.85 1.19-5.7 1.78-8.55 4.14-19.9 8.43-39.8 12.8-59.6 2.89-13 5.69-26 8.42-39.1 6.86-32.7 14.1-65.3 21.3-97.9 1.74-7.87 3.46-15.7 5.17-23.6 0.813-3.75 1.63-7.5 2.45-11.2 0.387-1.78 0.773-3.57 1.16-5.35 5.33-24.7 5.33-24.7 8.56-28 2.74-0.319 2.74-0.319 6.31-0.414 0.659-0.0195 1.32-0.0389 2-0.059 2.23-0.0617 4.46-0.108 6.69-0.152 1.6-0.0376 3.19-0.0752 4.79-0.113 28.6-0.622 57.2-0.566 85.7 0.00226z" fill="#000100"/>
<path transform="translate(1447 916)" d="m0 0c2.44 0.812 2.44 0.812 4.44 2.81 0.534 1.79 0.534 1.79 0.936 4.02 0.154 0.852 0.309 1.7 0.468 2.58 0.239 1.42 0.239 1.42 0.483 2.87 0.172 1.01 0.344 2.03 0.521 3.07 2.29 14.1 3.71 28.3 5.16 42.5 0.251 2.46 0.505 4.93 0.76 7.39 4.05 39.3 7.12 78.6 10.1 118 0.702 9.28 1.41 18.6 2.13 27.8 0.0939 1.22 0.0939 1.22 0.19 2.47 1.39 18 2.79 36.1 4.21 54.1 0.166 2.12 0.333 4.24 0.499 6.36 0.113 1.44 0.225 2.87 0.338 4.31 0.711 9.06 1.42 18.1 2.11 27.2 4.37 57 9.34 114 15.8 171 0.299 2.63 0.593 5.27 0.887 7.9 5.53 49.4 11.3 99.9 25.4 148 1.1 3.81 2.18 7.62 3.25 11.4 0.406 1.4 0.406 1.4 0.82 2.84 1.42 5.08 2.25 9.45 1.93 14.7-2.71 1.36-4.83 1.13-7.87 1.13-1.25 0.00426-2.5 0.00853-3.79 0.0129-1.39-3.5e-4 -2.79-8.11e-4 -4.18-0.00137-1.46 0.00299-2.92 0.00639-4.39 0.0102-3.98 0.00885-7.95 0.0112-11.9 0.0118-3.32 9.48e-4 -6.64 0.00463-9.95 0.00817-7.83 0.00815-15.7 0.0106-23.5 0.00987-8.08-6.01e-4 -16.2 0.00995-24.2 0.0257-6.93 0.0131-13.9 0.0184-20.8 0.0178-4.14-2.55e-4 -8.28 0.00261-12.4 0.0132-3.9 0.00967-7.79 0.00977-11.7 0.00248-1.43-0.00105-2.86 0.00133-4.29 0.00736-1.95 0.0077-3.9 0.00188-5.85-0.00463-1.09 5.45e-4 -2.18 0.00109-3.31 0.00165-2.79-0.247-4.44-0.805-6.81-2.25 1.53-8.4 3.69-16.4 6.25-24.6 23.4-75.4 28.9-158 32.6-236 0.146-3.09 0.302-6.18 0.459-9.26 1.85-37.1 1.87-74.3 1.88-111 5.22e-4 -1.22 0.00104-2.44 0.00158-3.69 0.0162-41.1-0.334-82.1-2.56-123-0.0975-1.84-0.0975-1.84-0.197-3.72-0.98-18.4-2.26-36.8-3.99-55.2-0.823-8.75-1.59-17.5-2.35-26.3-0.267-3.05-0.542-6.1-0.818-9.15-2.05-23.1-2.05-23.1-1.27-31.2 2.87-2.87 5.89-2.38 9.75-2.5 8.97-0.22 8.97-0.22 16.6-4.6 0.712-0.833 1.42-1.67 2.16-2.52 1.15-1.34 1.15-1.34 2.32-2.7 2.39-2.93 4.69-5.91 6.89-8.98 3.61-4.74 3.61-4.74 6.85-4.5z" fill="#000100"/>
<path transform="translate(546 1204)" d="m0 0c0.763 0.00497 1.53 0.00994 2.31 0.0151 0.811-0.00261 1.62-0.00521 2.46-0.0079 2.75-0.00635 5.49 0.00169 8.24 0.00955 1.98-0.00159 3.95-0.00405 5.93-0.00732 5.45-0.00644 10.9-3.23e-4 16.4 0.00776 5.87 0.00655 11.7 0.00163 17.6-0.00188 11.5-0.00505 23 6.12e-4 34.5 0.00985 9.35 0.00733 18.7 0.0103 28.1 0.0101 0.664-7.65e-6 1.33-1.53e-5 2.01-2.32e-5 2.69-4.09e-5 5.39-1.07e-4 8.08-2.06e-4 25.3-9.07e-4 50.6 0.00905 75.9 0.0244 22.5 0.0136 45 0.0199 67.5 0.0192 1.44-4.04e-5 2.89-8.08e-5 4.33-1.21e-4 1.07-3.05e-5 1.07-3.05e-5 2.16-6.17e-5 3.59-1.01e-4 7.19-1.91e-4 10.8-2.7e-4 0.709-1.67e-5 1.42-3.34e-5 2.15-5.06e-5 18.8-3.65e-4 37.5 0.00417 56.3 0.0104 0.667 2.2e-4 1.33 4.41e-4 2.02 6.67e-4 2.68 8.88e-4 5.37 0.00178 8.05 0.00269 10 0.00339 20 0.00473 30.1 0.00521 11.4 6.81e-4 22.8 0.00512 34.2 0.0143 5.81 0.00463 11.6 0.00766 17.4 0.00641 5.31-0.00109 10.6 0.00239 15.9 0.00965 1.93 0.00182 3.86 0.00193 5.79 2.33e-4 2.61-0.00204 5.21 0.00196 7.82 0.00761 0.765-0.00206 1.53-0.00411 2.32-0.00623 5.16 0.0207 5.16 0.0207 6.28 1.13 0.11 2.15 0.149 4.31 0.161 6.46 0.00496 0.675 0.00993 1.35 0.015 2.05 0.0147 2.24 0.0214 4.49 0.0269 6.73 0.00575 1.56 0.0115 3.11 0.0173 4.67 0.0105 3.27 0.0164 6.54 0.0198 9.81 0.00548 4.18 0.0295 8.37 0.058 12.6 0.0186 3.22 0.0238 6.43 0.0254 9.65 0.00302 1.54 0.011 3.08 0.0242 4.63 0.0171 2.16 0.0152 4.32 0.00869 6.48 0.00365 1.23 0.00729 2.46 0.011 3.73-0.532 4.7-2.29 7.23-5.67 10.4-9.03 6.07-22.7 7.22-33.3 9.37-2.47 0.502-4.94 1.02-7.41 1.53-5 1.03-10 1.98-15 2.91-1.13 0.212-1.13 0.212-2.29 0.428-15.6 2.82-31.2 3.01-47 2.98-3.74-0.0048-7.48 0.00784-11.2 0.018-7.3 0.0171-14.6 0.0181-21.9 0.0128-5.95-0.00407-11.9-0.00257-17.8 0.00275-0.852 7.48e-4 -1.7 0.0015-2.58 0.00227-1.73 0.00153-3.46 0.00307-5.19 0.00461-16.2 0.0137-32.4 0.00832-48.5-0.00319-14.7-0.00992-29.5 0.00299-44.2 0.0269-15.2 0.0245-30.4 0.034-45.6 0.0273-8.5-0.00347-17-0.00144-25.5 0.0163-7.24 0.0149-14.5 0.0152-21.7-0.00207-3.68-0.00839-7.36-0.011-11 0.00465-26.4 0.104-51.7-2.9-77.5-8.44-2.75-0.589-5.5-1.15-8.25-1.72-1.79-0.378-3.59-0.756-5.38-1.14-0.8-0.164-1.6-0.327-2.42-0.496-6.82-1.49-14.8-3.5-19.3-9.22-0.464-0.567-0.928-1.13-1.41-1.72-2.36-3.84-2.22-7.76-2.24-12.2-0.00638-1.29-0.0128-2.59-0.0193-3.92-0.00153-1.41-0.00264-2.82-0.00337-4.23-0.00321-1.45-0.00658-2.89-0.0101-4.34-0.00598-3.03-0.00784-6.06-0.00725-9.08 1.02e-4 -3.89-0.0136-7.77-0.0308-11.7-0.0111-2.99-0.0131-5.97-0.0126-8.96-0.00118-1.43-0.00562-2.87-0.0133-4.3-0.00976-2-0.00567-4-8.95e-4 -6-0.00143-1.14-0.00285-2.28-0.00432-3.45 0.471-5.11 3.16-4.91 7.66-4.95z" fill="#000100"/>
<path transform="translate(445,316)" d="m0 0c1.66 1.66 1.17 3.61 1.18 5.89-0.0615 5.8-0.862 11.2-2.05 16.9-0.216 1.05-0.431 2.09-0.653 3.17-22 103-22 103-45.5 131-0.612 0.812-1.22 1.62-1.86 2.46-10.6 12.5-27.4 18.8-43.2 21.3-23.9 1.52-44.7-2.99-63.1-19.1-1.62-1.53-3.22-3.07-4.81-4.62-0.7-0.664-1.4-1.33-2.12-2.01-13.3-13.6-19.3-34.2-19.1-52.8 0.647-13.6 5.57-25.5 12.3-37.2 0.76-1.33 0.76-1.33 1.54-2.68 6.61-10.6 15.7-17.3 26.5-23.3 1.07-0.597 2.14-1.19 3.24-1.81 9.87-5.21 20.2-8.73 30.8-12.2 0.976-0.327 1.95-0.654 2.96-0.991 29.3-9.76 59.5-17.4 89.8-23.3 1.02-0.201 2.04-0.402 3.09-0.608 7.37-1.35 7.37-1.35 11.2-0.0791z" fill="#000100"/>
<path transform="translate(985,57)" d="m0 0c4.75 7.13 1.18 17.8-0.375 25.6-0.193 0.987-0.193 0.987-0.391 1.99-23.4 119-23.4 119-58.5 142-17.5 11.3-37.9 15.2-58.4 11.4-20.5-4.52-39-16.5-50.4-34.2-10.7-18.4-14.6-39-9.5-59.9 3.47-11 8.78-22.4 16.5-31.1 0.461-0.553 0.923-1.11 1.4-1.68 26.2-28.9 78.4-36.4 115-45.3 2.95-0.73 5.9-1.49 8.84-2.25 8.18-2.11 16.3-4.09 24.7-5.56 0.7-0.124 1.4-0.248 2.12-0.375 3.2-0.538 6.12-0.812 9.38-0.812z" fill="#000100"/>
<path transform="translate(1289,1471)" d="m0 0c2.6 3.89 2.29 8.01 2.27 12.5 0.00511 0.857 0.0102 1.71 0.0155 2.6 0.0139 2.83 0.0129 5.67 0.0106 8.5 0.00389 1.97 0.00822 3.95 0.013 5.92 0.00746 4.14 0.00717 8.27 0.00191 12.4-0.00579 5.29 0.0111 10.6 0.0343 15.9 0.0148 4.08 0.0156 8.15 0.0125 12.2 5.12e-4 1.95 0.00574 3.9 0.0158 5.85 0.0124 2.73 0.00556 5.47-0.00601 8.2 0.00764 0.801 0.0153 1.6 0.0232 2.43-0.0552 5.92-1.16 10.6-4.9 15.4-0.534 0.458-1.07 0.915-1.62 1.39-0.518 0.471-1.04 0.941-1.57 1.43-6.55 3.58-14.2 3.55-21.5 3.52-0.977 0.0035-1.95 0.00701-2.96 0.0106-3.2 0.00875-6.41 0.00299-9.61-0.00378-2.25 0.00135-4.49 0.00329-6.74 0.0058-4.7 0.00294-9.4-0.00132-14.1-0.0107-5.99-0.0114-12-0.00484-18 0.00714-4.64 0.00726-9.27 0.00491-13.9-2.56e-4 -2.21-0.00133-4.42 2.74e-4 -6.63 0.00496-29.9 0.0494-29.9 0.0494-38.2-6.25-6.98-8.22-6.32-17.1-6.29-27.3-0.00524-1.68-0.0115-3.36-0.0188-5.04-0.0104-3.51-0.00589-7.02 0.00877-10.5 0.0172-4.49-0.00638-8.98-0.0415-13.5-0.022-3.47-0.0205-6.93-0.0122-10.4 8.19e-4 -1.66-0.00603-3.31-0.0208-4.97-0.0175-2.31-0.00291-4.63 0.0198-6.94 9.62e-4 -1.31 0.00192-2.63 0.00291-3.98 0.628-3.43 0.628-3.43 2.6-6.36 4.12-2.83 7.16-2.77 12-2.7 0.9-0.00727 1.8-0.0145 2.73-0.022 2.98-0.0186 5.95-0.00251 8.93 0.013 2.08-0.00805 4.16-0.0186 6.25-0.0314 5.49-0.0286 11-0.0291 16.5-0.0221 8.74 0.00731 17.5-0.0244 26.2-0.0624 3.03-0.00874 6.06-0.00359 9.09 0.00356 15.5-0.00473 30.5-0.394 45.1-6.38 1.86-0.737 3.72-1.47 5.58-2.2 0.793-0.322 1.59-0.645 2.4-0.977 2.2-0.703 2.2-0.703 6.2-0.703z" fill="#000100"/>
<path transform="translate(284,1473)" d="m0 0c1.99 0.789 3.97 1.6 5.94 2.44 15.5 6.14 32.4 6 48.8 6 2.12 0.0118 4.24 0.0252 6.36 0.04 5.51 0.0358 11 0.0563 16.5 0.0715 8.88 0.0251 17.8 0.0644 26.7 0.122 3.09 0.0163 6.19 0.0201 9.28 0.023 1.88 0.00977 3.76 0.02 5.64 0.0309 1.29-0.00383 1.29-0.00383 2.61-0.00774 5.9 0.0515 5.9 0.0515 8.13 2.28 0.319 2.64 0.319 2.64 0.414 6.04 0.0389 1.28 0.0778 2.57 0.118 3.89 0.0318 1.42 0.0628 2.84 0.093 4.26 0.0368 1.46 0.0736 2.93 0.111 4.39 0.257 10.9 0.39 21.8 0.44 32.6 0.00808 1.67 0.0191 3.35 0.0333 5.02 0.196 25.7 0.196 25.7-4.65 31.9-0.846 0.619-1.69 1.24-2.56 1.88-0.454 0.51-0.908 1.02-1.38 1.54-5.23 4.69-15.3 3.74-21.9 3.71-1.47 0.00526-1.47 0.00526-2.97 0.0106-3.2 0.00873-6.41 3e-3 -9.61-0.00378-2.25 0.00135-4.49 0.00329-6.74 0.0058-4.7 0.00294-9.39-0.00131-14.1-0.0107-6-0.0114-12-0.00483-18 0.00714-4.64 0.00725-9.27 0.00491-13.9-2.56e-4 -2.21-0.00133-4.42 2.77e-4 -6.63 0.00496-3.1 0.00512-6.2-0.00273-9.29-0.0138-0.899 0.00405-1.8 0.0081-2.72 0.0123-10.2-0.0668-19.2-0.85-26.7-8.27-4.31-5.06-4.15-9.83-4.15-16.3-0.00336-0.831-0.00672-1.66-0.0102-2.52-0.00949-2.75-0.0115-5.49-0.0125-8.24-0.00321-1.91-0.00658-3.82-0.0101-5.73-0.00599-4-0.00784-8.01-0.00725-12 1.02e-4 -5.13-0.0136-10.3-0.0308-15.4-0.0111-3.95-0.0131-7.89-0.0126-11.8-0.00118-1.89-0.0056-3.78-0.0133-5.67-0.0098-2.64-0.00692-5.29-8.95e-4 -7.93-0.00562-0.78-0.0112-1.56-0.017-2.36 0.0237-4.1 0.282-7.4 2.26-11 3.76-1.88 8.1-0.0592 12 1z" fill="#000100"/>
<path transform="translate(147,577)" d="m0 0c2.34 1.82 4.4 3.86 6.47 5.97 0.6 0.594 1.2 1.19 1.82 1.8 1.99 1.98 3.97 3.97 5.94 5.96 1.43 1.43 2.86 2.85 4.29 4.28 3.88 3.86 7.74 7.74 11.6 11.6 4.05 4.06 8.11 8.11 12.2 12.2 6.81 6.81 13.6 13.6 20.4 20.4 7.85 7.88 15.7 15.7 23.6 23.6 7.58 7.57 15.2 15.1 22.7 22.7 3.22 3.22 6.44 6.44 9.66 9.66 3.8 3.79 7.59 7.59 11.4 11.4 1.39 1.39 2.78 2.78 4.17 4.17 1.91 1.9 3.8 3.81 5.7 5.72 0.822 0.813 0.822 0.813 1.66 1.64 6.38 6.48 10.6 12.8 10.7 22.1-0.0612 6.88-1.32 10.5-4.81 16.4-5.44 5.3-11.4 7.69-18.9 8-9.76-0.479-15.6-4.52-22.5-11.1-0.566-0.528-1.13-1.06-1.72-1.6-5.93-5.55-11.7-11.3-17.4-17-1.1-1.1-2.2-2.2-3.31-3.3-2.28-2.27-4.55-4.55-6.83-6.82-2.92-2.92-5.85-5.83-8.77-8.74-2.26-2.25-4.52-4.51-6.78-6.77-1.08-1.08-2.16-2.15-3.24-3.23-1.5-1.49-2.99-2.98-4.48-4.48-0.849-0.848-1.7-1.7-2.57-2.57-1.81-2.06-1.81-2.06-1.81-4.06-0.589-0.265-1.18-0.53-1.79-0.803-2.29-1.24-3.81-2.53-5.65-4.36-0.662-0.65-1.32-1.3-2-1.97-0.715-0.713-1.43-1.43-2.17-2.16-1.14-1.13-1.14-1.13-2.31-2.28-2.52-2.49-5.03-4.99-7.54-7.49-1.75-1.74-3.5-3.48-5.25-5.22-3.67-3.65-7.34-7.31-11-11-4.68-4.67-9.38-9.32-14.1-14-3.63-3.59-7.24-7.19-10.9-10.8-1.73-1.72-3.46-3.44-5.19-5.14-20.6-20.3-20.6-20.3-21.8-32.5 0.504-6.61 3.92-12.3 8.12-17.2 10.8-8.99 20.6-10.2 32.6-3.12z" fill="#000100"/>
<path transform="translate(284 882)" d="m0 0c6.12 3.53 11.7 9.29 14.2 16 1.58 7.17 1.64 14.9-2.2 21.3-3.45 4.76-7.18 8.87-11.7 12.7-6.07 5.3-11.7 11.1-17.3 16.8-1.27 1.27-2.53 2.54-3.8 3.82-2.71 2.73-5.42 5.45-8.14 8.18-4.29 4.32-8.59 8.64-12.9 12.9-1.48 1.48-2.95 2.96-4.43 4.44-0.739 0.741-1.48 1.48-2.24 2.25-10 10-20 20.1-30 30.1-6.75 6.79-13.5 13.6-20.3 20.4-3.57 3.58-7.14 7.16-10.7 10.8-3.35 3.38-6.71 6.75-10.1 10.1-1.23 1.23-2.45 2.46-3.67 3.7-16.1 16.3-16.1 16.3-25.3 17.5-8.41-0.101-14.5-0.699-20.8-6.8-0.509-0.491-1.02-0.982-1.54-1.49-4.53-4.93-7.08-10.7-6.82-17.4 0.685-4.03 2.47-7.52 4.36-11.1 0.712-1.36 0.712-1.36 1.44-2.75 1.9-2.73 4.2-4.92 6.56-7.25 1.13-1.13 2.26-2.27 3.39-3.4 0.626-0.628 1.25-1.26 1.9-1.9 1.01-1.01 1.01-1.01 2.03-2.04 7.33-7.35 14.7-14.7 22-22 4.43-4.44 8.87-8.88 13.3-13.3 4.3-4.31 8.59-8.61 12.9-12.9 1.63-1.63 3.26-3.27 4.9-4.91 2.29-2.29 4.58-4.59 6.87-6.88 0.665-0.668 1.33-1.34 2.01-2.03 3.84-3.83 7.79-7.46 11.9-11 1.76-1.6 3.26-3.27 4.77-5.11 2.1-2.55 4.29-4.68 6.81-6.81 4.1-3.48 7.6-7.37 11.2-11.4 3.1-3.5 6.26-6.68 9.91-9.61 3.21-2.61 5.79-5.64 8.48-8.78 3.88-4.5 8.25-8.35 12.7-12.2 2.07-1.79 2.07-1.79 4.34-4.39 7-6.32 16.9-8.85 25.9-5.43z" fill="#000100"/>
<path transform="translate(37 798)" d="m0 0c0.69-0.00383 1.38-0.00765 2.09-0.0116 2.31-0.0103 4.61-0.00634 6.92-0.00237 1.66-0.00435 3.31-0.00953 4.97-0.0155 4.49-0.0134 8.99-0.014 13.5-0.0114 3.75 0.00107 7.51-0.00381 11.3-0.00861 8.85-0.0111 17.7-0.0115 26.6-0.00549 9.13 0.00604 18.3-0.00628 27.4-0.0276 7.84-0.0176 15.7-0.0236 23.5-0.0204 4.68 0.00181 9.37-8.25e-4 14-0.0147 4.4-0.0126 8.81-0.0106 13.2 0.00241 1.61 0.00237 3.23-3.71e-4 4.84-0.00862 2.21-0.0105 4.41-0.00237 6.62 0.0103 1.23-1.68e-4 2.47-3.35e-4 3.74-5.08e-4 6.94 0.773 10.6 4.25 14.8 9.39 5.17 6.66 6.23 12.7 5.54 21-1.09 7.03-4.25 10.8-9.55 15.4-5.44 3.62-11 4.01-17.3 4.25-0.904 0.0376-1.81 0.0752-2.74 0.114-13.1 0.481-26.2 0.415-39.3 0.404-3.81-0.00258-7.62-1.72e-4 -11.4 0.00139-6.38 0.0018-12.8-5.41e-4 -19.1-0.00534-7.35-0.00547-14.7-0.00366-22 0.00183-6.35 0.00455-12.7 0.00517-19.1 0.00256-3.77-0.00155-7.55-0.00179-11.3 0.00154-3.54 0.00291-7.08 8.51e-4 -10.6-0.00489-1.9-0.00193-3.8 1e-3 -5.7 0.00413-20.5-0.0502-20.5-0.0502-29.8-8.14-5.46-5.54-7.89-10.3-8-18 0.918-7.91 4.28-13.9 10.4-18.8 5.43-4.13 9.7-5.44 16.5-5.45z" fill="#000100"/>
<path transform="translate(316 1188)" d="m0 0c1.97 0.137 3.94 0.274 5.91 0.41 13.9 0.969 27.7 2.03 41.6 3.15 8.49 0.684 17 1.34 25.5 1.95 1.41 0.102 1.41 0.102 2.84 0.205 4.55 0.328 9.11 0.652 13.7 0.973 1.65 0.118 3.3 0.236 4.94 0.354 1.11 0.0764 1.11 0.0764 2.24 0.154 12.5 0.9 12.5 0.9 14.1 2.49 0.544 5.94-0.804 9.7-3.5 14.8-0.363 0.701-0.726 1.4-1.1 2.13-8.71 16.4-22.3 28.8-40.2 34.2-10.6 2.74-20.7 3.45-31.6 3.41-1.7 0.00525-3.4 0.0115-5.1 0.0188-3.53 0.0103-7.06 0.00599-10.6-0.00877-4.5-0.0173-8.99 0.00648-13.5 0.0415-3.5 0.022-7 0.0205-10.5 0.0122-1.66-8.13e-4 -3.32 0.00593-4.97 0.0208-10.9 0.0825-19.1-0.829-27.8-7.96-7.46-9.16-8.4-16.2-8.5-27.9-0.029-1.09-0.058-2.17-0.0879-3.29-0.0612-7.84 0.721-15.4 6.18-21.5 10.1-9.32 27.9-4.61 40.5-3.72z" fill="#000100"/>
<path transform="translate(1284,1189)" d="m0 0c1.67 2.06 1.67 2.06 3.19 4.44 0.764 1.17 0.764 1.17 1.54 2.37 3.27 5.65 2.46 12 2.45 18.3 0.00218 2.14 0.0203 4.28 0.0393 6.43 0.00294 1.38 0.00492 2.75 0.00586 4.13 0.00411 1.24 0.00822 2.49 0.0125 3.77-0.552 8.16-3.26 13.2-9.24 18.6-6.19 4.01-11.7 5.12-19 5.16-0.697 0.00496-1.39 0.00993-2.11 0.015-2.3 0.0146-4.61 0.0214-6.91 0.0269-1.19 0.00424-1.19 0.00424-2.4 0.00857-4.21 0.015-8.41 0.0242-12.6 0.0285-4.3 0.00544-8.61 0.0294-12.9 0.058-3.34 0.0188-6.69 0.0238-10 0.0254-1.58 0.00299-3.17 0.0109-4.75 0.0242-13.5 0.105-27.7-0.433-39.8-7.16-0.662-0.349-1.32-0.698-2-1.06-4.85-2.62-9.27-5.59-13.5-9.13-1.09-0.764-1.09-0.764-2.2-1.54-0.593-0.481-1.19-0.962-1.8-1.46v-2h-2c-5.78-6.23-10-13.4-13.7-21-0.363-0.73-0.726-1.46-1.1-2.21-2.37-5.11-2.37-5.11-1.7-7.96 1.49-1.83 1.49-1.83 4.35-2.5 1.85-0.122 1.85-0.122 3.74-0.246 1.03-0.0762 1.03-0.0762 2.08-0.154 2.31-0.167 4.63-0.307 6.94-0.448 1.65-0.115 3.31-0.232 4.96-0.351 3.58-0.255 7.16-0.5 10.7-0.74 5.73-0.388 11.5-0.827 17.2-1.28 0.972-0.0765 1.94-0.153 2.95-0.232 1.99-0.156 3.97-0.313 5.96-0.469 6.07-0.475 12.1-0.934 18.2-1.4 5.18-0.393 10.4-0.789 15.5-1.19 5.13-0.398 10.3-0.789 15.4-1.18 1.92-0.146 3.84-0.294 5.76-0.444 31.7-2.47 31.7-2.47 36.7 0.795z" fill="#000100"/>
</svg>
