<svg xmlns="http://www.w3.org/2000/svg" xmlns:xlink="http://www.w3.org/1999/xlink" version="1.1" width="64px" height="64px" viewBox="0 0 256 256" xml:space="preserve">

<defs>
</defs>
<g style="stroke: none; stroke-width: 0; stroke-dasharray: none; stroke-linecap: butt; stroke-linejoin: miter; stroke-miterlimit: 10; fill: none; fill-rule: nonzero; opacity: 1;" transform="translate(1.4065934065934016 1.4065934065934016) scale(2.81 2.81)" >
	<path d="M 12.546 63.355 c -3.541 0 -6.421 -2.881 -6.421 -6.421 c 0 -3.541 2.881 -6.422 6.421 -6.422 s 6.421 2.881 6.421 6.422 C 18.967 60.475 16.086 63.355 12.546 63.355 z M 12.546 53.513 c -1.887 0 -3.421 1.535 -3.421 3.422 s 1.535 3.421 3.421 3.421 s 3.421 -1.534 3.421 -3.421 S 14.433 53.513 12.546 53.513 z" style="stroke: none; stroke-width: 1; stroke-dasharray: none; stroke-linecap: butt; stroke-linejoin: miter; stroke-miterlimit: 10; fill: rgb(255,255,255); fill-rule: nonzero; opacity: 1;" transform=" matrix(1 0 0 1 0 0) " stroke-linecap="round" />
	<path d="M 12.55 58.439 c -0.41 0 -0.78 -0.159 -1.06 -0.449 c -0.29 -0.28 -0.44 -0.65 -0.44 -1.051 c 0 -0.1 0.01 -0.199 0.02 -0.3 c 0.02 -0.09 0.05 -0.189 0.09 -0.28 c 0.04 -0.09 0.09 -0.18 0.14 -0.26 s 0.12 -0.16 0.19 -0.229 c 0.07 -0.07 0.14 -0.13 0.22 -0.181 c 0.08 -0.06 0.17 -0.1 0.26 -0.14 c 0.09 -0.04 0.19 -0.07 0.28 -0.09 c 0.2 -0.04 0.4 -0.04 0.59 0 c 0.09 0.02 0.19 0.05 0.28 0.09 c 0.09 0.04 0.18 0.08 0.26 0.14 c 0.08 0.051 0.16 0.11 0.23 0.181 c 0.07 0.069 0.13 0.149 0.18 0.229 c 0.06 0.08 0.1 0.17 0.14 0.26 c 0.04 0.091 0.07 0.19 0.09 0.28 c 0.02 0.101 0.03 0.2 0.03 0.3 c 0 0.4 -0.16 0.771 -0.44 1.051 c -0.14 0.149 -0.31 0.26 -0.49 0.329 C 12.94 58.399 12.75 58.439 12.55 58.439 z" style="stroke: none; stroke-width: 1; stroke-dasharray: none; stroke-linecap: butt; stroke-linejoin: miter; stroke-miterlimit: 10; fill: rgb(255,255,255); fill-rule: nonzero; opacity: 1;" transform=" matrix(1 0 0 1 0 0) " stroke-linecap="round" />
	<path d="M 26.423 63.355 c -3.541 0 -6.421 -2.881 -6.421 -6.421 c 0 -3.541 2.881 -6.422 6.421 -6.422 s 6.421 2.881 6.421 6.422 C 32.844 60.475 29.963 63.355 26.423 63.355 z M 26.423 53.513 c -1.887 0 -3.421 1.535 -3.421 3.422 s 1.535 3.421 3.421 3.421 s 3.421 -1.534 3.421 -3.421 S 28.31 53.513 26.423 53.513 z" style="stroke: none; stroke-width: 1; stroke-dasharray: none; stroke-linecap: butt; stroke-linejoin: miter; stroke-miterlimit: 10; fill: rgb(255,255,255); fill-rule: nonzero; opacity: 1;" transform=" matrix(1 0 0 1 0 0) " stroke-linecap="round" />
	<path d="M 26.42 58.439 c -0.2 0 -0.39 -0.04 -0.57 -0.12 c -0.18 -0.069 -0.35 -0.18 -0.49 -0.329 c -0.28 -0.28 -0.44 -0.65 -0.44 -1.051 c 0 -0.1 0.01 -0.199 0.03 -0.3 c 0.02 -0.09 0.05 -0.189 0.09 -0.28 c 0.04 -0.09 0.08 -0.18 0.14 -0.26 c 0.05 -0.08 0.11 -0.16 0.18 -0.229 c 0.56 -0.561 1.57 -0.561 2.12 0 c 0.07 0.069 0.14 0.149 0.19 0.229 c 0.05 0.08 0.1 0.17 0.14 0.26 c 0.04 0.091 0.06 0.19 0.08 0.28 c 0.02 0.101 0.03 0.2 0.03 0.3 c 0 0.391 -0.15 0.771 -0.44 1.051 c -0.14 0.149 -0.3 0.26 -0.48 0.329 C 26.82 58.399 26.62 58.439 26.42 58.439 z" style="stroke: none; stroke-width: 1; stroke-dasharray: none; stroke-linecap: butt; stroke-linejoin: miter; stroke-miterlimit: 10; fill: rgb(255,255,255); fill-rule: nonzero; opacity: 1;" transform=" matrix(1 0 0 1 0 0) " stroke-linecap="round" />
	<path d="M 82.088 63.355 h -2.124 c -0.828 0 -1.5 -0.672 -1.5 -1.5 v -4.921 c 0 -0.828 0.672 -1.5 1.5 -1.5 s 1.5 0.672 1.5 1.5 v 3.421 h 0.624 c 0.828 0 1.5 0.672 1.5 1.5 S 82.916 63.355 82.088 63.355 z" style="stroke: none; stroke-width: 1; stroke-dasharray: none; stroke-linecap: butt; stroke-linejoin: miter; stroke-miterlimit: 10; fill: rgb(255,255,255); fill-rule: nonzero; opacity: 1;" transform=" matrix(1 0 0 1 0 0) " stroke-linecap="round" />
	<path d="M 40.299 63.355 c -3.541 0 -6.421 -2.881 -6.421 -6.421 c 0 -3.541 2.881 -6.422 6.421 -6.422 s 6.421 2.881 6.421 6.422 C 46.721 60.475 43.84 63.355 40.299 63.355 z M 40.299 53.513 c -1.887 0 -3.421 1.535 -3.421 3.422 s 1.535 3.421 3.421 3.421 s 3.421 -1.534 3.421 -3.421 S 42.186 53.513 40.299 53.513 z" style="stroke: none; stroke-width: 1; stroke-dasharray: none; stroke-linecap: butt; stroke-linejoin: miter; stroke-miterlimit: 10; fill: rgb(255,255,255); fill-rule: nonzero; opacity: 1;" transform=" matrix(1 0 0 1 0 0) " stroke-linecap="round" />
	<path d="M 40.3 58.439 c -0.4 0 -0.78 -0.159 -1.06 -0.449 c -0.28 -0.28 -0.44 -0.65 -0.44 -1.051 c 0 -0.1 0.01 -0.199 0.03 -0.3 c 0.02 -0.09 0.05 -0.189 0.08 -0.28 c 0.04 -0.09 0.09 -0.18 0.14 -0.26 c 0.06 -0.08 0.12 -0.16 0.19 -0.229 c 0.56 -0.561 1.56 -0.561 2.12 0 c 0.07 0.069 0.13 0.149 0.19 0.229 c 0.05 0.08 0.1 0.17 0.14 0.26 c 0.03 0.091 0.06 0.19 0.08 0.28 c 0.02 0.101 0.03 0.2 0.03 0.3 c 0 0.4 -0.16 0.771 -0.44 1.051 c -0.14 0.149 -0.31 0.26 -0.49 0.329 C 40.69 58.399 40.5 58.439 40.3 58.439 z" style="stroke: none; stroke-width: 1; stroke-dasharray: none; stroke-linecap: butt; stroke-linejoin: miter; stroke-miterlimit: 10; fill: rgb(255,255,255); fill-rule: nonzero; opacity: 1;" transform=" matrix(1 0 0 1 0 0) " stroke-linecap="round" />
	<path d="M 85.928 26.645 H 4.072 C 1.827 26.645 0 28.471 0 30.716 v 23.646 c 0 2.245 1.827 4.072 4.072 4.072 h 0.194 c -0.088 -0.488 -0.142 -0.987 -0.142 -1.5 c 0 -4.644 3.778 -8.422 8.421 -8.422 c 2.877 0 5.419 1.452 6.938 3.659 c 1.52 -2.207 4.062 -3.659 6.938 -3.659 c 2.877 0 5.418 1.452 6.938 3.659 c 1.52 -2.207 4.062 -3.659 6.938 -3.659 c 4.644 0 8.421 3.778 8.421 8.422 c 0 0.513 -0.053 1.012 -0.142 1.5 H 88.5 c 0.828 0 1.5 -0.672 1.5 -1.5 V 30.716 C 90 28.471 88.173 26.645 85.928 26.645 z" style="stroke: none; stroke-width: 1; stroke-dasharray: none; stroke-linecap: butt; stroke-linejoin: miter; stroke-miterlimit: 10; fill: rgb(255,255,255); fill-rule: nonzero; opacity: 1;" transform=" matrix(1 0 0 1 0 0) " stroke-linecap="round" />
</g>
</svg>