<svg fill="#ffffff" height="64px" width="64px" version="1.1" id="Layer_1" xmlns="http://www.w3.org/2000/svg" xmlns:xlink="http://www.w3.org/1999/xlink" viewBox="-39.04 -39.04 566.08 566.08" xml:space="preserve" transform="rotate(0)matrix(-1, 0, 0, 1, 0, 0)"><g id="SVGRepo_bgCarrier" stroke-width="0"></g><g id="SVGRepo_tracerCarrier" stroke-linecap="round" stroke-linejoin="round" stroke="#fcfcfc" stroke-width="6.832014000000001"> <g transform="translate(0 -540.36)"> <g> <g> <path d="M486.5,740.72L486.5,740.72c-1.8-2.9-5-4.7-8.5-4.7H358.6c-4.1,0-7.7,2.5-9.3,6.2l-15.8,38.4h-55.8l-41.2-73.4 c-1.8-3.2-5.1-5.1-8.7-5.1h-121l9.4-51.1l17.7,12.9c4.5,3.3,10.7,2.3,14-2.2s2.3-10.7-2.2-14l-30.5-22.3c-2.8-2-6.4-2.5-9.6-1.2 c-3.2,1.3-5.5,4.1-6.1,7.5l-33.6,181.9c-0.6,0-1.3,0-1.9,0c-17.4,0-33.6,6.9-45.6,19.3c-11.9,12.3-18.4,28.6-18.4,46 c0,37.1,28.1,66.2,64,66.2c17.5,0,33.8-6.9,46-19.4c12.2-12.5,18.9-29.1,18.9-46.8c0-28.4-18.1-52.6-43.4-61.6l14.2-76.8 l69.4,143.7c1.7,3.5,5.2,5.6,9,5.6h125.5c4.1,0,7.7-2.5,9.3-6.2l34.1-83h109.2c3.8,0,7.3-2.2,9-5.6l21.8-44.6 C488.5,747.32,488.3,743.72,486.5,740.72z M108.9,879.02c0,25.9-19.7,46.2-44.9,46.2c-24.7,0-44-20.3-44-46.2 c0-24.8,18.4-44.3,42.2-45.3l-8,43.5c-1,5.4,2.6,10.6,8,11.7c0.6,0.1,1.2,0.2,1.8,0.2c4.7,0,8.9-3.4,9.8-8.2l8-43.4 C97.8,844.42,108.9,860.42,108.9,879.02z M113.1,722.12H222l32.8,58.5H141.3L113.1,722.12z M297,869.92H184.5l-33.4-69.2h174.4 L297,869.92z M450,780.62h-94.8l10.1-24.6H462L450,780.62z"></path> <path d="M53.6,732.82c5.5,0,10-4.4,10-10v-43.7c0-5.5-4.5-10-10-10s-10,4.5-10,10v43.7C43.6,728.32,48.1,732.82,53.6,732.82z"></path> <path d="M402.2,813.72c-35.8,0-64.9,29.3-64.9,65.3c0,17.7,6.7,34.3,18.9,46.8s28.5,19.4,46,19.4c35.3,0,64-29.7,64-66.2 C466.2,843.02,437.5,813.72,402.2,813.72z M402.2,925.22c-25.2,0-44.9-20.3-44.9-46.2c0-25,20.1-45.3,44.9-45.3 c24.3,0,44,20.3,44,45.3C446.2,904.52,426.5,925.22,402.2,925.22z"></path> </g> </g> </g> </g><g id="SVGRepo_iconCarrier"> <g transform="translate(0 -540.36)"> <g> <g> <path d="M486.5,740.72L486.5,740.72c-1.8-2.9-5-4.7-8.5-4.7H358.6c-4.1,0-7.7,2.5-9.3,6.2l-15.8,38.4h-55.8l-41.2-73.4 c-1.8-3.2-5.1-5.1-8.7-5.1h-121l9.4-51.1l17.7,12.9c4.5,3.3,10.7,2.3,14-2.2s2.3-10.7-2.2-14l-30.5-22.3c-2.8-2-6.4-2.5-9.6-1.2 c-3.2,1.3-5.5,4.1-6.1,7.5l-33.6,181.9c-0.6,0-1.3,0-1.9,0c-17.4,0-33.6,6.9-45.6,19.3c-11.9,12.3-18.4,28.6-18.4,46 c0,37.1,28.1,66.2,64,66.2c17.5,0,33.8-6.9,46-19.4c12.2-12.5,18.9-29.1,18.9-46.8c0-28.4-18.1-52.6-43.4-61.6l14.2-76.8 l69.4,143.7c1.7,3.5,5.2,5.6,9,5.6h125.5c4.1,0,7.7-2.5,9.3-6.2l34.1-83h109.2c3.8,0,7.3-2.2,9-5.6l21.8-44.6 C488.5,747.32,488.3,743.72,486.5,740.72z M108.9,879.02c0,25.9-19.7,46.2-44.9,46.2c-24.7,0-44-20.3-44-46.2 c0-24.8,18.4-44.3,42.2-45.3l-8,43.5c-1,5.4,2.6,10.6,8,11.7c0.6,0.1,1.2,0.2,1.8,0.2c4.7,0,8.9-3.4,9.8-8.2l8-43.4 C97.8,844.42,108.9,860.42,108.9,879.02z M113.1,722.12H222l32.8,58.5H141.3L113.1,722.12z M297,869.92H184.5l-33.4-69.2h174.4 L297,869.92z M450,780.62h-94.8l10.1-24.6H462L450,780.62z"></path> <path d="M53.6,732.82c5.5,0,10-4.4,10-10v-43.7c0-5.5-4.5-10-10-10s-10,4.5-10,10v43.7C43.6,728.32,48.1,732.82,53.6,732.82z"></path> <path d="M402.2,813.72c-35.8,0-64.9,29.3-64.9,65.3c0,17.7,6.7,34.3,18.9,46.8s28.5,19.4,46,19.4c35.3,0,64-29.7,64-66.2 C466.2,843.02,437.5,813.72,402.2,813.72z M402.2,925.22c-25.2,0-44.9-20.3-44.9-46.2c0-25,20.1-45.3,44.9-45.3 c24.3,0,44,20.3,44,45.3C446.2,904.52,426.5,925.22,402.2,925.22z"></path> </g> </g> </g> </g></svg>